<?xml version="1.0" encoding="UTF-8"?>
<svg id="Layer_1" data-name="Layer 1" xmlns="http://www.w3.org/2000/svg" version="1.1" viewBox="0 0 1000 1000">
  <defs>
    <style>
      .cls-1 {
        fill: #b46a23;
      }

      .cls-1, .cls-2 {
        stroke-width: 0px;
      }

      .cls-2 {
        fill: #303030;
      }
    </style>
  </defs>
  <path class="cls-2" d="M323.1,401c-10.3-5.3-22.2-7.9-35.9-7.9s-25.7,2.6-35.9,7.9c-10.2,5.3-18.1,12.8-23.7,22.5-5.6,9.7-8.4,21.2-8.4,34.3s2.8,24.6,8.4,34.4c5.6,9.7,13.5,17.2,23.7,22.5,10.2,5.3,22.2,7.9,35.9,7.9s25.6-2.6,35.9-7.9c10.3-5.3,18.2-12.8,23.8-22.5,5.6-9.7,8.4-21.2,8.4-34.4s-2.8-24.6-8.4-34.3c-5.6-9.8-13.6-17.2-23.8-22.5ZM325.7,488.6c-3.6,8.7-8.7,15.4-15.3,20.1-6.6,4.7-14.3,7.1-23.2,7.1s-16.6-2.4-23.2-7.1c-6.6-4.7-11.7-11.4-15.3-20.1s-5.4-18.9-5.4-30.8,1.8-22.1,5.4-30.8c3.6-8.7,8.7-15.4,15.3-20.1s14.3-7.1,23.2-7.1,16.6,2.4,23.2,7.1,11.7,11.5,15.3,20.1c3.6,8.6,5.4,18.9,5.4,30.8.1,11.9-1.7,22.1-5.4,30.8Z"/>
  <path class="cls-2" d="M190.2,395.5h-34.9v1.8h2.3c3.1,0,5.8,1.1,8,3.3,2.3,2.2,3.4,4.8,3.4,7.9v46.3h-62.7v-46.3c0-3.1,1.3-5.7,3.5-7.9,2.2-2.2,4.8-3.3,7.9-3.3h2.3v-1.8h-49v1.8h2.3c3.1,0,5.7,1.1,7.9,3.3,2.2,2.2,3.4,4.8,3.5,7.9v98.6c0,3.1-1.3,5.7-3.5,7.9s-4.8,3.3-7.9,3.3h-2.3v1.8h49.1v-1.8h-2.3c-3.1,0-5.7-1.1-7.9-3.3-2.2-2.2-3.4-4.8-3.5-7.9v-45.6h62.7v45.6c0,3.1-1.1,5.7-3.4,7.9-2.2,2.2-4.9,3.3-8,3.3h-2.3v1.8h49.1v-1.8h-2.3c-3.1,0-5.7-1.1-7.9-3.3s-3.4-4.8-3.5-7.9v-98.6c.1-3.1,1.3-5.7,3.5-7.9,2.2-2.2,4.8-3.3,7.9-3.3h2.3v-1.8h-14.3Z"/>
  <path class="cls-2" d="M640.5,500.5c-3,4.1-6.6,7.2-11,9.4s-9.6,3.3-15.7,3.3h-23.8v-51.1h25.6c3.7,0,6.8,1.2,9.3,3.7s3.7,5.6,3.7,9.3v1.9h1.8v-36.7h-1.8v1.8c0,3.7-1.3,6.8-3.7,9.3-2.5,2.5-5.6,3.8-9.3,3.9h-25.6v-52.9h33.6c3.7.5,6.7,1.9,9.1,4.4,2.8,2.9,4.3,6.6,4.3,11.1v2.5h1.8v-28.1c-1.1.5-2.8.9-5.3,1.4s-5.2.9-8.1,1.2c-2.9.4-5.7.5-8.3.5h-62.4v1.8h2.3c3.1,0,5.7,1.1,7.9,3.3,2.2,2.2,3.4,4.8,3.5,7.9v98.6c0,3.1-1.3,5.7-3.5,7.9s-4.8,3.3-7.9,3.3h-2.3v1.8h86l8.9-33.8h-1.8c-1.9,5.4-4.3,10.2-7.3,14.3Z"/>
  <path class="cls-2" d="M796.1,460.5h-44.8v1.8h2.8c6,0,9.1,2.7,9.1,8l-.2,28.7c-2,3.6-4.8,6.6-8.3,9.2s-7.4,4.5-11.7,5.8-8.8,1.9-13.5,1.9c-9,0-16.8-2.5-23.4-7.2-6.6-4.7-11.6-11.3-15.1-19.9s-5.3-18.7-5.3-30.3,1.8-22.3,5.5-31.1c3.7-8.7,9-15.5,15.9-20.3,7-4.8,15.3-7.2,25.2-7.2s13,1.1,18.9,3.4c5.8,2.2,10.8,5.7,15,10.4,4.2,4.7,7.4,10.9,9.5,18.6h1.6l-1.4-28.7c-3.4-1.9-7.6-3.6-12.5-5.3-4.9-1.6-10.3-2.9-16.2-3.8s-12.1-1.4-18.6-1.4c-13.4,0-25.2,2.6-35.2,7.9-10.1,5.3-17.9,12.8-23.3,22.5-5.5,9.7-8.2,21.1-8.2,34.1s2.7,24.8,8.3,34.5c5.5,9.7,13.3,17.1,23.2,22.4,10,5.3,21.5,8,34.5,8.1,9.5,0,18-1.2,25.5-3.5s13.8-5.2,19.1-8.8c5.3-3.6,9.3-7.1,12-10.7v-29.4c-.2-5.3,2.7-8,8.9-8h2.7v-1.7Z"/>
  <path class="cls-2" d="M927.6,518.3c-2.7,0-5.6-.9-8.4-2.6-2.7-1.6-5-4.2-6.8-7.8l-51.4-115.6h-1.6c0,1.2-.5,2.9-1.3,5.1-.7,2.2-1.6,4.5-2.6,6.9s-1.9,4.5-2.7,6.3-1.3,3-1.5,3.5l-41.1,94.5h0c-1.8,3.3-3.9,5.6-6.4,7.1-2.9,1.7-5.7,2.6-8.5,2.6h-1.6v1.8h37.4v-1.8h-1.6c-1.4,0-2.8-.4-4.3-1.3-1.4-.9-2.4-2.2-3-3.8-.6-1.7-.4-3.7.5-6h0l10.1-24.7h43.9l9.8,25c1.2,3.4.9,6.1-.8,8-1.8,2-3.8,3-6,3h-1.6v1.8h51v-1.8h-1.4v-.2ZM835.5,475.6l19.7-48.2,18.8,48.2h-38.5Z"/>
  <g>
    <path class="cls-1" d="M429.2,506.3c-2.7.9-7.7,3.1-12.3,7.9-4.1,4.3-6,8.7-6.9,11.3-.9-2.6-2.8-7-6.9-11.3-4.6-4.8-9.6-7-12.3-7.9,2.7-.9,7.7-3.1,12.3-7.9,4.1-4.3,6-8.7,6.9-11.3.9,2.6,2.8,7,6.9,11.3,4.7,4.8,9.7,7,12.3,7.9Z"/>
    <path class="cls-2" d="M543.2,518.3c-6.5,0-11.9-4.8-12.8-11.2l-12.9-100.2v-.5c0,0-1.8-13.4-1.8-13.4h-1.6l-17.6,32.7-35.4,65.7-7.3-14.6-5.3-10.7-4.1-8.1-20.3-40.7c-6.7-13.5-20.5-22-35.6-22h-20.8c15.1,8.6,27.7,20.9,36.8,35.6l-16.7,31c-5,9.2-12.4,16.9-21.4,22.1h6.1c8.8,0,16.9-4.8,21-12.6l13.3-24.7,3.1-5.8,12.6,25.1,5.3,10.7h0l24.4,48.8c6.7,13.5,20.5,22,35.6,22h20.8c-17.7-10.1-32.1-25.2-41.2-43.5l-1.1-2.2,32.3-59.9,8.6,67.3c.6,4.8-3.1,9.1-8,9.1h-1.5v1.8h48.5v-1.8h-3Z"/>
  </g>
</svg>